<?xml version="1.0" encoding="utf-8"?>
<!-- Generator: Adobe Illustrator 25.4.1, SVG Export Plug-In . SVG Version: 6.00 Build 0)  -->
<svg version="1.1" id="레이어_1" xmlns="http://www.w3.org/2000/svg" xmlns:xlink="http://www.w3.org/1999/xlink" x="0px"
	 y="0px" viewBox="0 0 64 64" style="enable-background:new 0 0 64 64;" xml:space="preserve">
<style type="text/css">
	.st0{fill:#FBB040;}
</style>
<g>
	<path class="st0" d="M22.46,32.54c0.48,7.42,6.84,13.29,14.27,13.31c2.42,0,4.72-0.58,6.78-1.68c2.43-1.29,5.43-0.76,7.41,1.15
		l0.05,0.05c3.16,3.06,2.44,8.32-1.44,10.39c-4.36,2.33-9.3,3.44-14.42,3.14c-13.8-0.81-25-12.11-25.68-25.92
		C8.66,17.26,21.21,4.24,36.76,4.24c5.07,0,9.99,1.43,14.23,4.02c3.75,2.29,4.17,7.59,0.83,10.46l0,0c-2.11,1.82-5.19,2.17-7.56,0.7
		c-2.25-1.4-4.85-2.16-7.51-2.16C28.56,17.26,21.93,24.22,22.46,32.54z"/>
</g>
<path class="st0" d="M29.95,0.42h0.22c1.86,0,3.37,1.51,3.37,3.37v56.53c0,1.86-1.51,3.37-3.37,3.37h-0.22
	c-1.86,0-3.37-1.51-3.37-3.37V3.78C26.59,1.93,28.09,0.42,29.95,0.42z"/>
<path class="st0" d="M40.49,0.42h0.22c1.86,0,3.37,1.51,3.37,3.37v56.53c0,1.86-1.51,3.37-3.37,3.37h-0.22
	c-1.86,0-3.37-1.51-3.37-3.37V3.78C37.13,1.93,38.64,0.42,40.49,0.42z"/>
</svg>
